<?xml version="1.0" standalone="no"?>
<!DOCTYPE svg PUBLIC "-//W3C//DTD SVG 20010904//EN"
 "http://www.w3.org/TR/2001/REC-SVG-20010904/DTD/svg10.dtd">
<svg version="1.0" xmlns="http://www.w3.org/2000/svg"
 width="819.000000pt" height="819.000000pt" viewBox="0 0 819.000000 819.000000"
 preserveAspectRatio="xMidYMid meet">
<metadata>
Created by potrace 1.11, written by Peter Selinger 2001-2013
</metadata>
<g transform="translate(0.000000,819.000000) scale(0.100000,-0.100000)"
fill="#000000" stroke="none">
<path d="M3891 5838 c0 -128 0 -286 0 -350 l-1 -118 -314 0 -314 0 -11 48
c-34 135 -118 243 -236 302 -71 36 -124 46 -239 49 l-86 2 0 -130 0 -131 65 0
c36 0 66 1 68 1 1 1 21 -8 44 -20 52 -26 89 -79 102 -146 6 -27 12 -243 14
-480 2 -236 7 -441 10 -454 47 -176 102 -264 190 -302 l28 -12 -38 -17 c-70
-32 -137 -125 -162 -225 -7 -27 -15 -59 -18 -70 -4 -11 -8 -218 -10 -460 -4
-477 -8 -514 -59 -575 -39 -46 -77 -61 -157 -64 l-72 -2 0 -130 0 -129 70 0
c159 -1 266 37 358 127 68 67 113 157 135 274 l18 89 132 0 c126 0 132 1 133
20 3 85 1 214 -4 222 -3 5 -59 8 -124 8 -65 -1 -124 1 -130 3 -10 3 -13 45
-13 163 0 158 0 159 23 160 32 1 519 1 540 0 15 -1 17 -16 17 -164 l0 -163
-107 1 -108 1 -5 -86 c-3 -47 -3 -103 -2 -126 l4 -41 110 1 110 1 2 125 1 125
205 1 c113 1 207 2 210 3 10 2 1 536 -10 602 -14 85 -53 149 -106 174 -22 10
-48 18 -59 17 -36 -2 -41 13 -39 135 2 145 0 133 27 133 38 1 103 36 129 71
27 36 54 117 53 159 l0 25 -195 1 c-107 1 -201 2 -207 3 -9 1 -12 28 -12 99 1
53 0 109 0 123 l-1 25 -109 0 -110 0 -3 -90 c-2 -50 -1 -107 2 -126 l5 -36
108 2 107 1 0 -372 0 -373 -286 0 -286 0 7 37 c11 67 52 135 92 158 21 12 50
23 63 25 49 7 51 12 49 144 l-1 124 -27 0 c-40 1 -106 34 -128 66 -53 78 -61
145 -63 512 l-1 312 311 0 c288 0 310 -1 310 -17 1 -10 1 -96 0 -190 0 -95 3
-174 7 -174 5 -1 90 -2 191 -3 176 -1 182 -1 183 19 0 11 1 98 2 193 l2 172
-92 0 -93 0 0 125 0 124 97 3 97 3 12 48 c20 80 63 156 123 216 91 93 185 128
340 127 l93 -1 0 -105 c0 -58 -1 -115 -1 -127 -1 -21 -6 -23 -58 -23 -124 0
-180 -38 -216 -144 -6 -19 -11 -191 -12 -436 -3 -429 -6 -491 -30 -583 -29
-110 -76 -179 -154 -225 l-45 -26 28 -11 c69 -29 146 -141 174 -255 21 -88 24
-150 27 -560 2 -432 4 -450 47 -512 34 -49 81 -70 163 -71 86 -2 78 15 76
-150 0 -54 -3 -101 -5 -106 -7 -11 -161 -5 -221 9 -193 44 -327 212 -347 435
l-4 40 -192 0 -191 1 0 -393 0 -393 1873 0 c1819 0 1875 1 1948 19 250 64 432
267 466 519 4 31 7 687 7 1457 -1 1118 -3 1411 -14 1455 -45 189 -187 358
-366 438 -122 54 -30 52 -2048 52 l-1867 0 1 -232z m3409 -93 c110 -39 188
-108 245 -216 61 -116 64 -146 65 -614 0 -231 3 -436 6 -455 19 -130 64 -198
144 -220 25 -7 50 -14 57 -15 12 -4 18 -254 5 -256 -74 -7 -124 -34 -155 -82
-53 -82 -56 -109 -58 -622 -1 -440 -6 -483 -60 -593 -61 -124 -195 -223 -324
-238 -83 -10 -173 -11 -185 -4 -7 4 -10 52 -8 130 l3 123 71 3 c42 1 84 9 103
18 44 23 88 88 100 149 6 29 12 250 14 492 3 361 7 449 20 492 35 121 99 211
171 244 33 15 36 18 18 23 -64 21 -146 122 -175 218 -35 112 -35 116 -37 588
0 222 -5 415 -11 440 -24 108 -92 159 -211 160 l-68 0 0 131 0 132 113 -6 c64
-3 131 -12 157 -22z m-1830 -945 l5 -445 445 0 445 0 5 445 5 445 238 0 237 0
0 -317 c0 -175 1 -446 1 -603 0 -157 -1 -525 -1 -819 l0 -534 -237 2 -238 1
-3 488 c-1 268 -6 487 -10 488 -9 1 -863 1 -879 0 -10 -1 -13 -106 -13 -490
l0 -489 -240 0 c-214 1 -240 2 -241 17 -3 49 -3 2219 -1 2236 3 20 11 20 240
20 l237 0 5 -445z"/>
<path d="M570 5756 c-132 -30 -234 -113 -294 -238 -54 -116 -58 -147 -60 -626
-3 -463 -7 -502 -51 -579 -27 -44 -90 -83 -138 -83 l-28 0 3 -132 3 -131 25
-3 c88 -13 132 -51 161 -142 21 -64 22 -86 24 -483 2 -339 8 -510 20 -559 28
-116 120 -243 214 -294 83 -45 147 -59 271 -60 l75 -1 1 120 c0 66 -1 125 -3
131 -2 6 -25 10 -51 9 -81 -2 -127 13 -166 52 -65 67 -67 86 -70 572 -3 474
-7 510 -63 628 -30 65 -99 139 -138 149 -25 6 -25 7 17 34 88 56 126 114 159
236 20 74 22 106 24 512 2 238 6 449 10 469 14 75 62 142 115 159 36 12 34 11
103 13 l63 1 0 128 -1 127 -85 2 c-47 1 -110 -4 -140 -11z"/>
<path d="M995 5241 c-3 -2 -5 -519 -5 -1148 l0 -1144 478 2 c499 2 561 5 701
40 269 67 453 236 505 464 21 97 20 240 -3 333 -47 190 -143 290 -333 348 -32
10 -58 22 -58 26 0 4 4 8 10 8 29 0 127 47 171 81 111 88 170 231 170 414 0
280 -143 452 -441 528 -52 14 -120 28 -150 31 -30 4 -68 9 -85 12 -36 7 -954
12 -960 5z m945 -415 c84 -22 132 -55 165 -110 49 -84 29 -238 -40 -302 -27
-25 -111 -59 -170 -68 -49 -8 -405 -9 -413 -2 -4 5 -7 417 -3 488 1 16 18 17
199 14 144 -3 214 -8 262 -20z m-24 -888 c199 -31 293 -151 263 -339 -14 -87
-61 -159 -127 -193 -79 -41 -133 -48 -354 -51 -196 -3 -218 -1 -219 14 -1 21
-1 563 0 574 1 11 363 7 437 -5z"/>
</g>
</svg>
