<?xml version="1.0" standalone="no"?>
<!DOCTYPE svg PUBLIC "-//W3C//DTD SVG 20010904//EN"
 "http://www.w3.org/TR/2001/REC-SVG-20010904/DTD/svg10.dtd">
<svg version="1.0" xmlns="http://www.w3.org/2000/svg"
 width="693.000000pt" height="693.000000pt" viewBox="0 0 693.000000 693.000000"
 preserveAspectRatio="xMidYMid meet">
<metadata>
Created by potrace 1.11, written by Peter Selinger 2001-2013
</metadata>
<g transform="translate(0.000000,693.000000) scale(0.100000,-0.100000)"
fill="#000000" stroke="none">
<path d="M492 5425 c-185 -41 -347 -171 -430 -346 -65 -136 -62 -53 -61 -1609
0 -1276 3 -1453 23 -1515 1 -5 7 -23 11 -40 35 -127 187 -295 323 -357 134
-61 -96 -57 3107 -57 2825 -1 2942 0 3000 18 80 24 179 75 222 114 19 18 41
35 48 40 25 14 108 132 136 195 58 128 56 73 55 1627 l-2 1430 -27 80 c-36
102 -93 189 -172 264 -81 75 -149 113 -258 145 l-89 26 -2911 -1 c-2424 0
-2923 -3 -2975 -14z m2889 -33 c1 -9 1 -612 0 -634 -1 -17 -22 -18 -296 -18
l-294 0 -11 43 c-18 73 -66 161 -120 220 -84 92 -189 133 -348 136 l-92 2 0
-130 0 -131 63 -1 c34 -1 66 -1 70 0 11 2 68 -29 87 -48 19 -18 48 -71 57
-104 7 -23 10 -170 16 -632 2 -154 7 -291 10 -305 4 -14 9 -38 13 -55 22 -107
109 -234 172 -251 25 -7 30 -24 6 -24 -30 0 -130 -115 -153 -177 -45 -121 -49
-166 -50 -608 -1 -230 -4 -431 -8 -445 -10 -45 -41 -105 -65 -126 -39 -36 -65
-44 -143 -47 l-75 -2 0 -131 0 -131 87 3 c148 6 233 32 316 98 43 34 94 104
124 169 23 49 55 185 47 198 -10 17 28 23 146 24 l125 0 3 125 3 126 -133 -1
-133 0 -3 163 -2 162 290 0 290 0 0 -163 0 -162 -102 1 c-57 0 -107 -3 -113
-7 -8 -6 -12 -159 -6 -235 1 -7 33 -11 89 -11 48 -1 98 -1 112 -2 l25 -1 -1
-365 c0 -201 -4 -368 -7 -371 -7 -7 -2789 -7 -2827 0 -14 3 -43 8 -65 12 -63
11 -161 62 -227 116 -63 53 -139 149 -165 208 -48 111 -46 37 -48 1569 -2
1504 -2 1483 41 1586 74 179 255 325 437 353 62 10 2857 13 2858 4z m990 -259
c4 -28 4 -235 -1 -242 -3 -5 -36 -10 -75 -12 -94 -4 -140 -30 -175 -99 -30
-59 -33 -111 -35 -520 -2 -357 -6 -471 -21 -522 -3 -9 -7 -25 -9 -35 -15 -76
-92 -181 -157 -214 l-40 -20 38 -21 c93 -48 159 -169 180 -328 4 -30 8 -237 9
-460 1 -223 5 -415 9 -427 4 -12 9 -31 11 -42 5 -25 41 -79 70 -103 26 -22 65
-31 140 -32 l60 -1 0 -115 c1 -63 -1 -122 -3 -131 -3 -14 -17 -16 -95 -12
-100 4 -214 33 -262 66 -45 30 -125 109 -125 123 0 7 -4 14 -8 16 -28 11 -79
174 -81 258 l-1 25 -190 0 -191 0 3 125 3 125 188 0 c119 0 187 3 188 10 4 43
0 522 -5 561 -16 119 -69 204 -139 220 -18 4 -35 9 -39 10 -5 1 -14 2 -21 3
-10 1 -12 30 -11 124 1 67 2 125 3 130 0 4 13 7 27 7 39 0 91 29 124 68 26 32
37 63 55 157 l6 30 -188 0 -188 0 -3 125 -3 125 185 0 c119 0 187 3 189 10 2
5 3 91 3 190 l-1 180 -92 3 -93 3 1 124 1 125 98 0 98 0 7 36 c8 47 44 128 79
179 58 85 145 144 256 172 46 12 220 17 221 6z m627 -953 c0 -239 1 -439 1
-445 1 -7 157 -10 449 -10 l447 0 5 445 5 445 238 0 237 1 1 -26 c1 -33 1
-2210 0 -2231 -1 -15 -27 -16 -241 -17 l-240 -1 0 490 c0 384 -3 489 -12 490
-15 0 -791 0 -853 0 l-40 -1 1 -489 1 -490 -232 1 c-128 0 -236 3 -241 7 -6 3
-10 461 -9 1136 l0 1130 241 0 241 0 1 -435z m-1617 293 c1 -20 1 -342 0 -358
-1 -6 -43 -10 -111 -9 -73 0 -110 -3 -111 -10 0 -6 -1 -60 -2 -119 -2 -88 1
-110 13 -116 8 -4 59 -6 113 -6 l97 1 0 -373 0 -373 -286 0 -287 0 7 42 c15
95 86 173 163 182 16 2 31 4 34 5 3 0 6 59 6 129 0 127 0 128 -23 130 -32 2
-94 29 -117 50 -26 23 -53 87 -65 152 -6 30 -11 198 -12 373 l-1 317 291 0
c269 0 290 -1 291 -17z"/>
<path d="M520 3467 l0 -1148 494 2 c434 1 505 3 592 20 124 23 178 40 268 83
166 80 283 221 326 392 15 63 19 104 16 199 -5 179 -43 280 -140 377 -38 38
-155 104 -199 112 -42 7 -67 17 -67 25 0 4 25 15 56 24 133 41 232 152 273
307 19 71 22 101 18 190 -5 118 -9 139 -38 212 -67 169 -212 265 -489 323
-101 21 -260 28 -687 29 l-423 1 0 -1148z m885 740 c11 -2 38 -8 60 -12 144
-25 219 -133 193 -279 -20 -113 -88 -173 -219 -196 -36 -6 -147 -12 -247 -13
-176 -2 -182 -1 -183 18 -4 91 1 476 6 484 6 10 346 8 390 -2z m55 -901 c174
-34 253 -120 251 -275 -1 -82 -13 -130 -46 -179 -40 -59 -91 -88 -205 -117
-14 -4 -121 -9 -237 -11 -198 -4 -213 -3 -214 13 0 21 0 552 0 571 1 17 359
15 451 -2z"/>
</g>
</svg>
